<?xml version="1.0" encoding="UTF-8" standalone="no"?>
<svg width="937.0px" height="1183.0px" version="1.1" xmlns="http://www.w3.org/2000/svg" xmlns:xlink="http://www.w3.org/1999/xlink">
<g>
<rect x="0.0px" y="0.0px" width="937.0px" height="1183.0px" rx="0.0px" ry="0.0px" style="fill:none;"/>
<rect x="293.5px" y="170.5px" width="94.0px" height="66.0px" rx="0.0px" ry="0.0px" style="fill:rgb(255,250,205); stroke:rgb(169,169,169); stroke-width:1.0px;"/>
<text transform="translate(299.0,189.0), rotate(-0.0)" x="0px" y="0px" textLength="60.0px"
style="font-family:Arial; font-size:13.0px; fill:rgb(0,0,0); stroke:none; baseline-shift:-13.0px; ">
<![CDATA[Button mit]]>
</text>
<text transform="translate(299.0,205.0), rotate(-0.0)" x="0px" y="0px" textLength="28.0px"
style="font-family:Arial; font-size:13.0px; fill:rgb(0,0,0); stroke:none; baseline-shift:-13.0px; ">
<![CDATA[einer]]>
</text>
<text transform="translate(299.0,221.0), rotate(-0.0)" x="0px" y="0px" textLength="66.0px"
style="font-family:Arial; font-size:13.0px; fill:rgb(0,0,0); stroke:none; baseline-shift:-13.0px; ">
<![CDATA[Möglichkeit]]>
</text>
<rect x="709.5px" y="170.5px" width="94.0px" height="66.0px" rx="0.0px" ry="0.0px" style="fill:rgb(255,250,205); stroke:rgb(169,169,169); stroke-width:1.0px;"/>
<text transform="translate(714.0,189.0), rotate(-0.0)" x="0px" y="0px" textLength="56.0px"
style="font-family:Arial; font-size:13.0px; fill:rgb(0,0,0); stroke:none; baseline-shift:-13.0px; ">
<![CDATA[gehen sie]]>
</text>
<text transform="translate(714.0,205.0), rotate(-0.0)" x="0px" y="0px" textLength="25.0px"
style="font-family:Arial; font-size:13.0px; fill:rgb(0,0,0); stroke:none; baseline-shift:-13.0px; ">
<![CDATA[zum]]>
</text>
<text transform="translate(714.0,221.0), rotate(-0.0)" x="0px" y="0px" textLength="75.0px"
style="font-family:Arial; font-size:13.0px; fill:rgb(0,0,0); stroke:none; baseline-shift:-13.0px; ">
<![CDATA[Sekretariat...]]>
</text>
<rect x="765.5px" y="529.5px" width="95.0px" height="76.0px" rx="0.0px" ry="0.0px" style="fill:rgb(255,250,205); stroke:rgb(169,169,169); stroke-width:1.0px;"/>
<text transform="translate(771.0,548.0), rotate(-0.0)" x="0px" y="0px" textLength="68.0px"
style="font-family:Arial; font-size:13.0px; fill:rgb(0,0,0); stroke:none; baseline-shift:-13.0px; ">
<![CDATA[betreten sie]]>
</text>
<text transform="translate(771.0,564.0), rotate(-0.0)" x="0px" y="0px" textLength="21.0px"
style="font-family:Arial; font-size:13.0px; fill:rgb(0,0,0); stroke:none; baseline-shift:-13.0px; ">
<![CDATA[das]]>
</text>
<text transform="translate(771.0,580.0), rotate(-0.0)" x="0px" y="0px" textLength="63.0px"
style="font-family:Arial; font-size:13.0px; fill:rgb(0,0,0); stroke:none; baseline-shift:-13.0px; ">
<![CDATA[Sekretariat]]>
</text>
<rect x="161.5px" y="425.5px" width="94.0px" height="76.0px" rx="0.0px" ry="0.0px" style="fill:rgb(255,250,205); stroke:rgb(169,169,169); stroke-width:1.0px;"/>
<text transform="translate(166.0,444.0), rotate(-0.0)" x="0px" y="0px" textLength="61.0px"
style="font-family:Arial; font-size:13.0px; fill:rgb(0,0,0); stroke:none; baseline-shift:-13.0px; ">
<![CDATA[wählen sie]]>
</text>
<text transform="translate(166.0,460.0), rotate(-0.0)" x="0px" y="0px" textLength="28.0px"
style="font-family:Arial; font-size:13.0px; fill:rgb(0,0,0); stroke:none; baseline-shift:-13.0px; ">
<![CDATA[ihren]]>
</text>
<text transform="translate(166.0,476.0), rotate(-0.0)" x="0px" y="0px" textLength="77.0px"
style="font-family:Arial; font-size:13.0px; fill:rgb(0,0,0); stroke:none; baseline-shift:-13.0px; ">
<![CDATA[Studiengan...]]>
</text>
<rect x="66.5px" y="746.5px" width="95.0px" height="76.0px" rx="0.0px" ry="0.0px" style="fill:rgb(255,250,205); stroke:rgb(169,169,169); stroke-width:1.0px;"/>
<text transform="translate(72.0,765.0), rotate(-0.0)" x="0px" y="0px" textLength="77.0px"
style="font-family:Arial; font-size:13.0px; fill:rgb(0,0,0); stroke:none; baseline-shift:-13.0px; ">
<![CDATA[gehen sie ins]]>
</text>
<text transform="translate(72.0,781.0), rotate(-0.0)" x="0px" y="0px" textLength="38.0px"
style="font-family:Arial; font-size:13.0px; fill:rgb(0,0,0); stroke:none; baseline-shift:-13.0px; ">
<![CDATA[Büro 1]]>
</text>
<rect x="510.5px" y="746.5px" width="95.0px" height="76.0px" rx="0.0px" ry="0.0px" style="fill:rgb(255,250,205); stroke:rgb(169,169,169); stroke-width:1.0px;"/>
<text transform="translate(516.0,765.0), rotate(-0.0)" x="0px" y="0px" textLength="77.0px"
style="font-family:Arial; font-size:13.0px; fill:rgb(0,0,0); stroke:none; baseline-shift:-13.0px; ">
<![CDATA[gehen sie ins]]>
</text>
<text transform="translate(516.0,781.0), rotate(-0.0)" x="0px" y="0px" textLength="38.0px"
style="font-family:Arial; font-size:13.0px; fill:rgb(0,0,0); stroke:none; baseline-shift:-13.0px; ">
<![CDATA[Büro 2]]>
</text>
<rect x="161.5px" y="945.5px" width="94.0px" height="75.0px" rx="0.0px" ry="0.0px" style="fill:rgb(255,250,205); stroke:rgb(169,169,169); stroke-width:1.0px;"/>
<text transform="translate(166.0,964.0), rotate(-0.0)" x="0px" y="0px" textLength="59.0px"
style="font-family:Arial; font-size:13.0px; fill:rgb(0,0,0); stroke:none; baseline-shift:-13.0px; ">
<![CDATA[lassen sie]]>
</text>
<text transform="translate(166.0,980.0), rotate(-0.0)" x="0px" y="0px" textLength="17.0px"
style="font-family:Arial; font-size:13.0px; fill:rgb(0,0,0); stroke:none; baseline-shift:-13.0px; ">
<![CDATA[die]]>
</text>
<text transform="translate(166.0,996.0), rotate(-0.0)" x="0px" y="0px" textLength="76.0px"
style="font-family:Arial; font-size:13.0px; fill:rgb(0,0,0); stroke:none; baseline-shift:-13.0px; ">
<![CDATA[Bewerbung...]]>
</text>
<rect x="520.5px" y="973.5px" width="85.0px" height="76.0px" rx="0.0px" ry="0.0px" style="fill:rgb(255,250,205); stroke:rgb(169,169,169); stroke-width:1.0px;"/>
<text transform="translate(525.0,992.0), rotate(-0.0)" x="0px" y="0px" textLength="56.0px"
style="font-family:Arial; font-size:13.0px; fill:rgb(0,0,0); stroke:none; baseline-shift:-13.0px; ">
<![CDATA[gehen sie]]>
</text>
<text transform="translate(525.0,1008.0), rotate(-0.0)" x="0px" y="0px" textLength="25.0px"
style="font-family:Arial; font-size:13.0px; fill:rgb(0,0,0); stroke:none; baseline-shift:-13.0px; ">
<![CDATA[zum]]>
</text>
<text transform="translate(525.0,1024.0), rotate(-0.0)" x="0px" y="0px" textLength="48.0px"
style="font-family:Arial; font-size:13.0px; fill:rgb(0,0,0); stroke:none; baseline-shift:-13.0px; ">
<![CDATA[Dekanat]]>
</text>
<rect x="718.5px" y="983.5px" width="76.0px" height="66.0px" rx="0.0px" ry="0.0px" style="fill:rgb(255,250,205); stroke:rgb(169,169,169); stroke-width:1.0px;"/>
<text transform="translate(724.0,1001.0), rotate(-0.0)" x="0px" y="0px" textLength="42.0px"
style="font-family:Arial; font-size:13.0px; fill:rgb(0,0,0); stroke:none; baseline-shift:-13.0px; ">
<![CDATA[reichen]]>
</text>
<text transform="translate(724.0,1018.0), rotate(-0.0)" x="0px" y="0px" textLength="42.0px"
style="font-family:Arial; font-size:13.0px; fill:rgb(0,0,0); stroke:none; baseline-shift:-13.0px; ">
<![CDATA[sie ihre]]>
</text>
<text transform="translate(724.0,1034.0), rotate(-0.0)" x="0px" y="0px" textLength="62.0px"
style="font-family:Arial; font-size:13.0px; fill:rgb(0,0,0); stroke:none; baseline-shift:-13.0px; ">
<![CDATA[Bewerbu...]]>
</text>
<clipPath id="AdoSvgClip4">
<ellipse cx="142.0px" cy="321.0px" rx="26.5px" ry="26.5px" style="fill:none;"/>
</clipPath>
<g clip-path="url(#AdoSvgClip4)">
<linearGradient id="AdoSvgGradient0" x1="0%" y1="0%" x2="100%" y2="100%"><stop offset="5%" stop-color="rgb(255,255,255)"/><stop offset="95%" stop-color="rgb(238,238,0)"/></linearGradient>
<rect x="108.0px" y="295.0px" width="106.0px" height="53.0px" style="fill:url(#AdoSvgGradient0);"/>
</g>
<ellipse cx="142.5px" cy="321.5px" rx="26.0px" ry="26.0px" style="fill:none; stroke:rgb(136,136,0); stroke-width:1.0px;"/>
<clipPath id="AdoSvgClip9">
<rect x="283.0px" y="291.0px" width="115.0px" height="61.0px" rx="8.0px" ry="8.0px" style="fill:none;"/>
</clipPath>
<g clip-path="url(#AdoSvgClip9)">
<linearGradient id="AdoSvgGradient1" x1="0%" y1="0%" x2="100%" y2="100%"><stop offset="5%" stop-color="rgb(255,255,255)"/><stop offset="95%" stop-color="rgb(143,194,255)"/></linearGradient>
<rect x="283.0px" y="291.0px" width="114.0px" height="60.0px" style="fill:url(#AdoSvgGradient1);"/>
</g>
<rect x="283.0px" y="291.0px" width="114.0px" height="60.0px" rx="8.0px" ry="8.0px" style="fill:none; stroke:rgb(0,68,170); stroke-width:2.0px;"/>
<text transform="translate(297.0,326.0), rotate(-0.0)" x="0px" y="0px" textLength="87.0px"
style="font-family:Arial; font-size:13.0px; fill:rgb(0,0,0); stroke:none; baseline-shift:-13.0px; ">
<![CDATA[Wähle Aktivität]]>
</text>
<path d="M 176.0 323.0 L 280.0 323.0" style="fill:none; stroke:rgb(219,219,219); stroke-width:1.0px;"/>
<polygon points=" 267.0,319.0 280.0,323.0 267.0,327.0 " style="fill:none; stroke:rgb(219,219,219); stroke-width:1.0px;"/>
<path d="M 176.0 322.0 L 280.0 322.0" style="fill:none; stroke:rgb(219,219,219); stroke-width:1.0px;"/>
<polygon points=" 267.0,318.0 280.0,322.0 267.0,326.0 " style="fill:none; stroke:rgb(219,219,219); stroke-width:1.0px;"/>
<path d="M 175.0 322.0 L 279.0 322.0" style="fill:none; stroke:rgb(169,169,169); stroke-width:1.0px;"/>
<polygon points=" 266.0,318.0 279.0,322.0 266.0,326.0 " style="fill:none; stroke:rgb(169,169,169); stroke-width:1.0px;"/>
<path d="M 175.0 321.0 L 279.0 321.0" style="fill:none; stroke:rgb(169,169,169); stroke-width:1.0px;"/>
<polygon points=" 266.0,317.0 279.0,321.0 266.0,325.0 " style="fill:none; stroke:rgb(169,169,169); stroke-width:1.0px;"/>
<path d="M 174.0 321.0 L 278.0 321.0" style="fill:none; stroke:rgb(0,0,0); stroke-width:1.0px;"/>
<polygon points=" 265.0,317.0 278.0,321.0 265.0,325.0 " style="fill:rgb(0,0,0); stroke:rgb(0,0,0); stroke-width:1.0px;"/>
<polygon points=" 524.0,323.0 550.0,350.0 576.0,323.0 550.0,297.0 " style="fill:none; stroke:rgb(219,219,219); stroke-width:2.0px;"/>
<polygon points=" 524.0,322.0 550.0,349.0 576.0,322.0 550.0,296.0 " style="fill:none; stroke:rgb(219,219,219); stroke-width:2.0px;"/>
<polygon points=" 523.0,322.0 549.0,349.0 575.0,322.0 549.0,296.0 " style="fill:none; stroke:rgb(169,169,169); stroke-width:2.0px;"/>
<polygon points=" 523.0,321.0 549.0,348.0 575.0,321.0 549.0,295.0 " style="fill:none; stroke:rgb(169,169,169); stroke-width:2.0px;"/>
<clipPath id="AdoSvgClip14">
<polygon points=" 522.0,321.0 548.0,348.0 574.0,321.0 548.0,295.0 " style="fill:none;"/>
</clipPath>
<g clip-path="url(#AdoSvgClip14)">
<linearGradient id="AdoSvgGradient2" x1="0%" y1="0%" x2="100%" y2="100%"><stop offset="5%" stop-color="rgb(255,255,255)"/><stop offset="95%" stop-color="rgb(238,238,0)"/></linearGradient>
<rect x="499.0px" y="276.0px" width="106.0px" height="91.0px" style="fill:url(#AdoSvgGradient2);"/>
</g>
<polygon points=" 522.0,321.0 548.0,348.0 574.0,321.0 548.0,295.0 " style="fill:none; stroke:rgb(171,171,42); stroke-width:2.0px;"/>
<text transform="translate(515.0,364.0), rotate(-0.0)" x="0px" y="0px" textLength="66.0px"
style="font-family:Arial; font-size:13.0px; fill:rgb(0,0,0); stroke:none; baseline-shift:-13.0px; ">
<![CDATA[für Studium]]>
</text>
<text transform="translate(512.0,381.0), rotate(-0.0)" x="0px" y="0px" textLength="73.0px"
style="font-family:Arial; font-size:13.0px; fill:rgb(0,0,0); stroke:none; baseline-shift:-13.0px; ">
<![CDATA[einschreiben]]>
</text>
<path d="M 405.0 323.0 L 518.0 323.0" style="fill:none; stroke:rgb(219,219,219); stroke-width:1.0px;"/>
<polygon points=" 505.0,319.0 518.0,323.0 505.0,327.0 " style="fill:none; stroke:rgb(219,219,219); stroke-width:1.0px;"/>
<path d="M 405.0 322.0 L 518.0 322.0" style="fill:none; stroke:rgb(219,219,219); stroke-width:1.0px;"/>
<polygon points=" 505.0,318.0 518.0,322.0 505.0,326.0 " style="fill:none; stroke:rgb(219,219,219); stroke-width:1.0px;"/>
<path d="M 404.0 322.0 L 517.0 322.0" style="fill:none; stroke:rgb(169,169,169); stroke-width:1.0px;"/>
<polygon points=" 504.0,318.0 517.0,322.0 504.0,326.0 " style="fill:none; stroke:rgb(169,169,169); stroke-width:1.0px;"/>
<path d="M 404.0 321.0 L 517.0 321.0" style="fill:none; stroke:rgb(169,169,169); stroke-width:1.0px;"/>
<polygon points=" 504.0,317.0 517.0,321.0 504.0,325.0 " style="fill:none; stroke:rgb(169,169,169); stroke-width:1.0px;"/>
<path d="M 403.0 321.0 L 516.0 321.0" style="fill:none; stroke:rgb(0,0,0); stroke-width:1.0px;"/>
<polygon points=" 503.0,317.0 516.0,321.0 503.0,325.0 " style="fill:rgb(0,0,0); stroke:rgb(0,0,0); stroke-width:1.0px;"/>
<clipPath id="AdoSvgClip19">
<rect x="709.0px" y="291.0px" width="114.0px" height="61.0px" rx="8.0px" ry="8.0px" style="fill:none;"/>
</clipPath>
<g clip-path="url(#AdoSvgClip19)">
<linearGradient id="AdoSvgGradient3" x1="0%" y1="0%" x2="100%" y2="100%"><stop offset="5%" stop-color="rgb(255,255,255)"/><stop offset="95%" stop-color="rgb(143,194,255)"/></linearGradient>
<rect x="709.0px" y="291.0px" width="113.0px" height="60.0px" style="fill:url(#AdoSvgGradient3);"/>
</g>
<rect x="709.0px" y="291.0px" width="113.0px" height="60.0px" rx="8.0px" ry="8.0px" style="fill:none; stroke:rgb(0,68,170); stroke-width:2.0px;"/>
<text transform="translate(731.0,326.0), rotate(-0.0)" x="0px" y="0px" textLength="70.0px"
style="font-family:Arial; font-size:13.0px; fill:rgb(0,0,0); stroke:none; baseline-shift:-13.0px; ">
<![CDATA[Uni betreten]]>
</text>
<path d="M 582.0 323.0 L 705.0 323.0" style="fill:none; stroke:rgb(219,219,219); stroke-width:1.0px;"/>
<polygon points=" 693.0,319.0 705.0,323.0 693.0,327.0 " style="fill:none; stroke:rgb(219,219,219); stroke-width:1.0px;"/>
<path d="M 582.0 322.0 L 705.0 322.0" style="fill:none; stroke:rgb(219,219,219); stroke-width:1.0px;"/>
<polygon points=" 693.0,318.0 705.0,322.0 693.0,326.0 " style="fill:none; stroke:rgb(219,219,219); stroke-width:1.0px;"/>
<path d="M 581.0 322.0 L 704.0 322.0" style="fill:none; stroke:rgb(169,169,169); stroke-width:1.0px;"/>
<polygon points=" 692.0,318.0 704.0,322.0 692.0,326.0 " style="fill:none; stroke:rgb(169,169,169); stroke-width:1.0px;"/>
<path d="M 581.0 321.0 L 704.0 321.0" style="fill:none; stroke:rgb(169,169,169); stroke-width:1.0px;"/>
<polygon points=" 692.0,317.0 704.0,321.0 692.0,325.0 " style="fill:none; stroke:rgb(169,169,169); stroke-width:1.0px;"/>
<path d="M 580.0 321.0 L 703.0 321.0" style="fill:none; stroke:rgb(0,0,0); stroke-width:1.0px;"/>
<polygon points=" 691.0,317.0 703.0,321.0 691.0,325.0 " style="fill:rgb(0,0,0); stroke:rgb(0,0,0); stroke-width:1.0px;"/>
<text transform="translate(637.0,342.0), rotate(-0.0)" x="0px" y="0px" textLength="10.0px"
style="font-family:Arial; font-size:13.0px; fill:rgb(0,0,0); stroke:none; baseline-shift:-13.0px; ">
<![CDATA[ja]]>
</text>
<clipPath id="AdoSvgClip24">
<rect x="709.0px" y="442.0px" width="114.0px" height="62.0px" rx="8.0px" ry="8.0px" style="fill:none;"/>
</clipPath>
<g clip-path="url(#AdoSvgClip24)">
<linearGradient id="AdoSvgGradient4" x1="0%" y1="0%" x2="100%" y2="100%"><stop offset="5%" stop-color="rgb(255,255,255)"/><stop offset="95%" stop-color="rgb(143,194,255)"/></linearGradient>
<rect x="709.0px" y="442.0px" width="113.0px" height="61.0px" style="fill:url(#AdoSvgGradient4);"/>
</g>
<rect x="709.0px" y="442.0px" width="113.0px" height="61.0px" rx="8.0px" ry="8.0px" style="fill:none; stroke:rgb(0,68,170); stroke-width:2.0px;"/>
<text transform="translate(720.0,469.0), rotate(-0.0)" x="0px" y="0px" textLength="92.0px"
style="font-family:Arial; font-size:13.0px; fill:rgb(0,0,0); stroke:none; baseline-shift:-13.0px; ">
<![CDATA[zum Sekretariat]]>
</text>
<text transform="translate(748.0,485.0), rotate(-0.0)" x="0px" y="0px" textLength="35.0px"
style="font-family:Arial; font-size:13.0px; fill:rgb(0,0,0); stroke:none; baseline-shift:-13.0px; ">
<![CDATA[gehen]]>
</text>
<clipPath id="AdoSvgClip29">
<rect x="283.0px" y="442.0px" width="115.0px" height="62.0px" rx="8.0px" ry="8.0px" style="fill:none;"/>
</clipPath>
<g clip-path="url(#AdoSvgClip29)">
<linearGradient id="AdoSvgGradient5" x1="0%" y1="0%" x2="100%" y2="100%"><stop offset="5%" stop-color="rgb(255,255,255)"/><stop offset="95%" stop-color="rgb(143,194,255)"/></linearGradient>
<rect x="283.0px" y="442.0px" width="114.0px" height="61.0px" style="fill:url(#AdoSvgGradient5);"/>
</g>
<rect x="283.0px" y="442.0px" width="114.0px" height="61.0px" rx="8.0px" ry="8.0px" style="fill:none; stroke:rgb(0,68,170); stroke-width:2.0px;"/>
<text transform="translate(304.0,469.0), rotate(-0.0)" x="0px" y="0px" textLength="72.0px"
style="font-family:Arial; font-size:13.0px; fill:rgb(0,0,0); stroke:none; baseline-shift:-13.0px; ">
<![CDATA[Studiengang]]>
</text>
<text transform="translate(321.0,485.0), rotate(-0.0)" x="0px" y="0px" textLength="40.0px"
style="font-family:Arial; font-size:13.0px; fill:rgb(0,0,0); stroke:none; baseline-shift:-13.0px; ">
<![CDATA[wählen]]>
</text>
<path d="M 767.0 359.0 L 767.0 439.0" style="fill:none; stroke:rgb(219,219,219); stroke-width:1.0px;"/>
<polygon points=" 772.0,426.0 767.0,439.0 763.0,426.0 " style="fill:none; stroke:rgb(219,219,219); stroke-width:1.0px;"/>
<path d="M 767.0 358.0 L 767.0 438.0" style="fill:none; stroke:rgb(219,219,219); stroke-width:1.0px;"/>
<polygon points=" 772.0,425.0 767.0,438.0 763.0,425.0 " style="fill:none; stroke:rgb(219,219,219); stroke-width:1.0px;"/>
<path d="M 766.0 358.0 L 766.0 438.0" style="fill:none; stroke:rgb(169,169,169); stroke-width:1.0px;"/>
<polygon points=" 771.0,425.0 766.0,438.0 762.0,425.0 " style="fill:none; stroke:rgb(169,169,169); stroke-width:1.0px;"/>
<path d="M 766.0 357.0 L 766.0 437.0" style="fill:none; stroke:rgb(169,169,169); stroke-width:1.0px;"/>
<polygon points=" 771.0,424.0 766.0,437.0 762.0,424.0 " style="fill:none; stroke:rgb(169,169,169); stroke-width:1.0px;"/>
<path d="M 765.0 357.0 L 765.0 437.0" style="fill:none; stroke:rgb(0,0,0); stroke-width:1.0px;"/>
<polygon points=" 770.0,424.0 765.0,437.0 761.0,424.0 " style="fill:rgb(0,0,0); stroke:rgb(0,0,0); stroke-width:1.0px;"/>
<path d="M 705.0 474.0 L 405.0 474.0" style="fill:none; stroke:rgb(219,219,219); stroke-width:1.0px;"/>
<polygon points=" 417.0,479.0 405.0,474.0 417.0,470.0 " style="fill:none; stroke:rgb(219,219,219); stroke-width:1.0px;"/>
<path d="M 705.0 473.0 L 405.0 473.0" style="fill:none; stroke:rgb(219,219,219); stroke-width:1.0px;"/>
<polygon points=" 417.0,478.0 405.0,473.0 417.0,469.0 " style="fill:none; stroke:rgb(219,219,219); stroke-width:1.0px;"/>
<path d="M 704.0 473.0 L 404.0 473.0" style="fill:none; stroke:rgb(169,169,169); stroke-width:1.0px;"/>
<polygon points=" 416.0,478.0 404.0,473.0 416.0,469.0 " style="fill:none; stroke:rgb(169,169,169); stroke-width:1.0px;"/>
<path d="M 704.0 472.0 L 404.0 472.0" style="fill:none; stroke:rgb(169,169,169); stroke-width:1.0px;"/>
<polygon points=" 416.0,477.0 404.0,472.0 416.0,468.0 " style="fill:none; stroke:rgb(169,169,169); stroke-width:1.0px;"/>
<path d="M 703.0 472.0 L 403.0 472.0" style="fill:none; stroke:rgb(0,0,0); stroke-width:1.0px;"/>
<polygon points=" 415.0,477.0 403.0,472.0 415.0,468.0 " style="fill:rgb(0,0,0); stroke:rgb(0,0,0); stroke-width:1.0px;"/>
<polygon points=" 316.0,597.0 342.0,624.0 369.0,597.0 342.0,571.0 " style="fill:none; stroke:rgb(219,219,219); stroke-width:2.0px;"/>
<polygon points=" 316.0,596.0 342.0,623.0 369.0,596.0 342.0,570.0 " style="fill:none; stroke:rgb(219,219,219); stroke-width:2.0px;"/>
<polygon points=" 315.0,596.0 341.0,623.0 368.0,596.0 341.0,570.0 " style="fill:none; stroke:rgb(169,169,169); stroke-width:2.0px;"/>
<polygon points=" 315.0,595.0 341.0,622.0 368.0,595.0 341.0,569.0 " style="fill:none; stroke:rgb(169,169,169); stroke-width:2.0px;"/>
<clipPath id="AdoSvgClip34">
<polygon points=" 314.0,595.0 340.0,622.0 367.0,595.0 340.0,569.0 " style="fill:none;"/>
</clipPath>
<g clip-path="url(#AdoSvgClip34)">
<linearGradient id="AdoSvgGradient6" x1="0%" y1="0%" x2="100%" y2="100%"><stop offset="5%" stop-color="rgb(255,255,255)"/><stop offset="95%" stop-color="rgb(238,238,0)"/></linearGradient>
<rect x="291.0px" y="550.0px" width="106.0px" height="91.0px" style="fill:url(#AdoSvgGradient6);"/>
</g>
<polygon points=" 314.0,595.0 340.0,622.0 367.0,595.0 340.0,569.0 " style="fill:none; stroke:rgb(171,171,42); stroke-width:2.0px;"/>
<path d="M 342.0 510.0 L 342.0 565.0" style="fill:none; stroke:rgb(219,219,219); stroke-width:1.0px;"/>
<polygon points=" 346.0,553.0 342.0,565.0 338.0,553.0 " style="fill:none; stroke:rgb(219,219,219); stroke-width:1.0px;"/>
<path d="M 342.0 509.0 L 342.0 564.0" style="fill:none; stroke:rgb(219,219,219); stroke-width:1.0px;"/>
<polygon points=" 346.0,552.0 342.0,564.0 338.0,552.0 " style="fill:none; stroke:rgb(219,219,219); stroke-width:1.0px;"/>
<path d="M 341.0 509.0 L 341.0 564.0" style="fill:none; stroke:rgb(169,169,169); stroke-width:1.0px;"/>
<polygon points=" 345.0,552.0 341.0,564.0 337.0,552.0 " style="fill:none; stroke:rgb(169,169,169); stroke-width:1.0px;"/>
<path d="M 341.0 508.0 L 341.0 563.0" style="fill:none; stroke:rgb(169,169,169); stroke-width:1.0px;"/>
<polygon points=" 345.0,551.0 341.0,563.0 337.0,551.0 " style="fill:none; stroke:rgb(169,169,169); stroke-width:1.0px;"/>
<path d="M 340.0 508.0 L 340.0 563.0" style="fill:none; stroke:rgb(0,0,0); stroke-width:1.0px;"/>
<polygon points=" 344.0,551.0 340.0,563.0 336.0,551.0 " style="fill:rgb(0,0,0); stroke:rgb(0,0,0); stroke-width:1.0px;"/>
<clipPath id="AdoSvgClip39">
<rect x="161.0px" y="678.0px" width="114.0px" height="62.0px" rx="8.0px" ry="8.0px" style="fill:none;"/>
</clipPath>
<g clip-path="url(#AdoSvgClip39)">
<linearGradient id="AdoSvgGradient7" x1="0%" y1="0%" x2="100%" y2="100%"><stop offset="5%" stop-color="rgb(255,255,255)"/><stop offset="95%" stop-color="rgb(143,194,255)"/></linearGradient>
<rect x="161.0px" y="678.0px" width="113.0px" height="61.0px" style="fill:url(#AdoSvgGradient7);"/>
</g>
<rect x="161.0px" y="678.0px" width="113.0px" height="61.0px" rx="8.0px" ry="8.0px" style="fill:none; stroke:rgb(0,68,170); stroke-width:2.0px;"/>
<text transform="translate(184.0,697.0), rotate(-0.0)" x="0px" y="0px" textLength="68.0px"
style="font-family:Arial; font-size:13.0px; fill:rgb(0,0,0); stroke:none; baseline-shift:-13.0px; ">
<![CDATA[zu Büro von]]>
</text>
<text transform="translate(166.0,714.0), rotate(-0.0)" x="0px" y="0px" textLength="103.0px"
style="font-family:Arial; font-size:13.0px; fill:rgb(0,0,0); stroke:none; baseline-shift:-13.0px; ">
<![CDATA[Studiengangsleite]]>
</text>
<text transform="translate(186.0,730.0), rotate(-0.0)" x="0px" y="0px" textLength="62.0px"
style="font-family:Arial; font-size:13.0px; fill:rgb(0,0,0); stroke:none; baseline-shift:-13.0px; ">
<![CDATA[r WI laufen]]>
</text>
<clipPath id="AdoSvgClip44">
<rect x="397.0px" y="678.0px" width="114.0px" height="62.0px" rx="8.0px" ry="8.0px" style="fill:none;"/>
</clipPath>
<g clip-path="url(#AdoSvgClip44)">
<linearGradient id="AdoSvgGradient8" x1="0%" y1="0%" x2="100%" y2="100%"><stop offset="5%" stop-color="rgb(255,255,255)"/><stop offset="95%" stop-color="rgb(143,194,255)"/></linearGradient>
<rect x="397.0px" y="678.0px" width="113.0px" height="61.0px" style="fill:url(#AdoSvgGradient8);"/>
</g>
<rect x="397.0px" y="678.0px" width="113.0px" height="61.0px" rx="8.0px" ry="8.0px" style="fill:none; stroke:rgb(0,68,170); stroke-width:2.0px;"/>
<text transform="translate(420.0,697.0), rotate(-0.0)" x="0px" y="0px" textLength="68.0px"
style="font-family:Arial; font-size:13.0px; fill:rgb(0,0,0); stroke:none; baseline-shift:-13.0px; ">
<![CDATA[zu Büro von]]>
</text>
<text transform="translate(402.0,714.0), rotate(-0.0)" x="0px" y="0px" textLength="103.0px"
style="font-family:Arial; font-size:13.0px; fill:rgb(0,0,0); stroke:none; baseline-shift:-13.0px; ">
<![CDATA[Studiengangsleite]]>
</text>
<text transform="translate(416.0,730.0), rotate(-0.0)" x="0px" y="0px" textLength="75.0px"
style="font-family:Arial; font-size:13.0px; fill:rgb(0,0,0); stroke:none; baseline-shift:-13.0px; ">
<![CDATA[r BWL laufen]]>
</text>
<path d="M 310.0 597.0 L 214.0 597.0 C 212.0 597.0 210.0 599.0 210.0 601.0 L 210.0 675.0" style="fill:none; stroke:rgb(219,219,219); stroke-width:1.0px;"/>
<polygon points=" 214.0,662.0 210.0,675.0 206.0,662.0 " style="fill:none; stroke:rgb(219,219,219); stroke-width:1.0px;"/>
<path d="M 310.0 596.0 L 214.0 596.0 C 212.0 596.0 210.0 598.0 210.0 600.0 L 210.0 674.0" style="fill:none; stroke:rgb(219,219,219); stroke-width:1.0px;"/>
<polygon points=" 214.0,661.0 210.0,674.0 206.0,661.0 " style="fill:none; stroke:rgb(219,219,219); stroke-width:1.0px;"/>
<path d="M 309.0 596.0 L 213.0 596.0 C 211.0 596.0 209.0 598.0 209.0 600.0 L 209.0 674.0" style="fill:none; stroke:rgb(169,169,169); stroke-width:1.0px;"/>
<polygon points=" 213.0,661.0 209.0,674.0 205.0,661.0 " style="fill:none; stroke:rgb(169,169,169); stroke-width:1.0px;"/>
<path d="M 309.0 595.0 L 213.0 595.0 C 211.0 595.0 209.0 597.0 209.0 599.0 L 209.0 673.0" style="fill:none; stroke:rgb(169,169,169); stroke-width:1.0px;"/>
<polygon points=" 213.0,660.0 209.0,673.0 205.0,660.0 " style="fill:none; stroke:rgb(169,169,169); stroke-width:1.0px;"/>
<path d="M 308.0 595.0 L 212.0 595.0 C 210.0 595.0 208.0 597.0 208.0 599.0 L 208.0 673.0" style="fill:none; stroke:rgb(0,0,0); stroke-width:1.0px;"/>
<polygon points=" 212.0,660.0 208.0,673.0 204.0,660.0 " style="fill:rgb(0,0,0); stroke:rgb(0,0,0); stroke-width:1.0px;"/>
<text transform="translate(158.0,616.0), rotate(-0.0)" x="0px" y="0px" textLength="122.0px"
style="font-family:Arial; font-size:13.0px; fill:rgb(0,0,0); stroke:none; baseline-shift:-13.0px; ">
<![CDATA[Wirtschaftsinformatik]]>
</text>
<path d="M 374.0 597.0 L 452.0 597.0 C 454.0 597.0 456.0 599.0 456.0 601.0 L 456.0 675.0" style="fill:none; stroke:rgb(219,219,219); stroke-width:1.0px;"/>
<polygon points=" 460.0,662.0 456.0,675.0 451.0,662.0 " style="fill:none; stroke:rgb(219,219,219); stroke-width:1.0px;"/>
<path d="M 374.0 596.0 L 452.0 596.0 C 454.0 596.0 456.0 598.0 456.0 600.0 L 456.0 674.0" style="fill:none; stroke:rgb(219,219,219); stroke-width:1.0px;"/>
<polygon points=" 460.0,661.0 456.0,674.0 451.0,661.0 " style="fill:none; stroke:rgb(219,219,219); stroke-width:1.0px;"/>
<path d="M 373.0 596.0 L 451.0 596.0 C 453.0 596.0 455.0 598.0 455.0 600.0 L 455.0 674.0" style="fill:none; stroke:rgb(169,169,169); stroke-width:1.0px;"/>
<polygon points=" 459.0,661.0 455.0,674.0 450.0,661.0 " style="fill:none; stroke:rgb(169,169,169); stroke-width:1.0px;"/>
<path d="M 373.0 595.0 L 451.0 595.0 C 453.0 595.0 455.0 597.0 455.0 599.0 L 455.0 673.0" style="fill:none; stroke:rgb(169,169,169); stroke-width:1.0px;"/>
<polygon points=" 459.0,660.0 455.0,673.0 450.0,660.0 " style="fill:none; stroke:rgb(169,169,169); stroke-width:1.0px;"/>
<path d="M 372.0 595.0 L 450.0 595.0 C 452.0 595.0 454.0 597.0 454.0 599.0 L 454.0 673.0" style="fill:none; stroke:rgb(0,0,0); stroke-width:1.0px;"/>
<polygon points=" 458.0,660.0 454.0,673.0 449.0,660.0 " style="fill:rgb(0,0,0); stroke:rgb(0,0,0); stroke-width:1.0px;"/>
<text transform="translate(437.0,616.0), rotate(-0.0)" x="0px" y="0px" textLength="29.0px"
style="font-family:Arial; font-size:13.0px; fill:rgb(0,0,0); stroke:none; baseline-shift:-13.0px; ">
<![CDATA[BWL]]>
</text>
<clipPath id="AdoSvgClip49">
<rect x="283.0px" y="896.0px" width="115.0px" height="61.0px" rx="8.0px" ry="8.0px" style="fill:none;"/>
</clipPath>
<g clip-path="url(#AdoSvgClip49)">
<linearGradient id="AdoSvgGradient9" x1="0%" y1="0%" x2="100%" y2="100%"><stop offset="5%" stop-color="rgb(255,255,255)"/><stop offset="95%" stop-color="rgb(143,194,255)"/></linearGradient>
<rect x="283.0px" y="896.0px" width="114.0px" height="60.0px" style="fill:url(#AdoSvgGradient9);"/>
</g>
<rect x="283.0px" y="896.0px" width="114.0px" height="60.0px" rx="8.0px" ry="8.0px" style="fill:none; stroke:rgb(0,68,170); stroke-width:2.0px;"/>
<text transform="translate(308.0,915.0), rotate(-0.0)" x="0px" y="0px" textLength="64.0px"
style="font-family:Arial; font-size:13.0px; fill:rgb(0,0,0); stroke:none; baseline-shift:-13.0px; ">
<![CDATA[Bewerbung]]>
</text>
<text transform="translate(298.0,931.0), rotate(-0.0)" x="0px" y="0px" textLength="85.0px"
style="font-family:Arial; font-size:13.0px; fill:rgb(0,0,0); stroke:none; baseline-shift:-13.0px; ">
<![CDATA[unterschreiben]]>
</text>
<text transform="translate(321.0,947.0), rotate(-0.0)" x="0px" y="0px" textLength="38.0px"
style="font-family:Arial; font-size:13.0px; fill:rgb(0,0,0); stroke:none; baseline-shift:-13.0px; ">
<![CDATA[lassen]]>
</text>
<path d="M 271.0 747.0 L 310.0 773.0" style="fill:none; stroke:rgb(219,219,219); stroke-width:1.0px;"/>
<polygon points=" 302.0,763.0 310.0,773.0 298.0,770.0 " style="fill:none; stroke:rgb(219,219,219); stroke-width:1.0px;"/>
<path d="M 271.0 746.0 L 310.0 772.0" style="fill:none; stroke:rgb(219,219,219); stroke-width:1.0px;"/>
<polygon points=" 302.0,762.0 310.0,772.0 298.0,769.0 " style="fill:none; stroke:rgb(219,219,219); stroke-width:1.0px;"/>
<path d="M 270.0 746.0 L 309.0 772.0" style="fill:none; stroke:rgb(169,169,169); stroke-width:1.0px;"/>
<polygon points=" 301.0,762.0 309.0,772.0 297.0,769.0 " style="fill:none; stroke:rgb(169,169,169); stroke-width:1.0px;"/>
<path d="M 270.0 745.0 L 309.0 771.0" style="fill:none; stroke:rgb(169,169,169); stroke-width:1.0px;"/>
<polygon points=" 301.0,761.0 309.0,771.0 297.0,768.0 " style="fill:none; stroke:rgb(169,169,169); stroke-width:1.0px;"/>
<path d="M 269.0 745.0 L 308.0 771.0" style="fill:none; stroke:rgb(0,0,0); stroke-width:1.0px;"/>
<polygon points=" 300.0,761.0 308.0,771.0 296.0,768.0 " style="fill:rgb(0,0,0); stroke:rgb(0,0,0); stroke-width:1.0px;"/>
<polygon points=" 316.0,796.0 342.0,822.0 369.0,796.0 342.0,769.0 " style="fill:none; stroke:rgb(219,219,219); stroke-width:2.0px;"/>
<polygon points=" 316.0,795.0 342.0,821.0 369.0,795.0 342.0,768.0 " style="fill:none; stroke:rgb(219,219,219); stroke-width:2.0px;"/>
<polygon points=" 315.0,795.0 341.0,821.0 368.0,795.0 341.0,768.0 " style="fill:none; stroke:rgb(169,169,169); stroke-width:2.0px;"/>
<polygon points=" 315.0,794.0 341.0,820.0 368.0,794.0 341.0,767.0 " style="fill:none; stroke:rgb(169,169,169); stroke-width:2.0px;"/>
<clipPath id="AdoSvgClip54">
<polygon points=" 314.0,794.0 340.0,820.0 367.0,794.0 340.0,767.0 " style="fill:none;"/>
</clipPath>
<g clip-path="url(#AdoSvgClip54)">
<linearGradient id="AdoSvgGradient10" x1="0%" y1="0%" x2="100%" y2="100%"><stop offset="5%" stop-color="rgb(255,255,255)"/><stop offset="95%" stop-color="rgb(238,238,0)"/></linearGradient>
<rect x="291.0px" y="748.0px" width="106.0px" height="91.0px" style="fill:url(#AdoSvgGradient10);"/>
</g>
<polygon points=" 314.0,794.0 340.0,820.0 367.0,794.0 340.0,767.0 " style="fill:none; stroke:rgb(171,171,42); stroke-width:2.0px;"/>
<text transform="translate(338.0,837.0), rotate(-0.0)" x="0px" y="0px" textLength="4.0px"
style="font-family:Arial; font-size:13.0px; fill:rgb(0,0,0); stroke:none; baseline-shift:-13.0px; ">
<![CDATA[ ]]>
</text>
<path d="M 408.0 747.0 L 374.0 772.0" style="fill:none; stroke:rgb(219,219,219); stroke-width:1.0px;"/>
<polygon points=" 387.0,767.0 374.0,772.0 382.0,761.0 " style="fill:none; stroke:rgb(219,219,219); stroke-width:1.0px;"/>
<path d="M 408.0 746.0 L 374.0 771.0" style="fill:none; stroke:rgb(219,219,219); stroke-width:1.0px;"/>
<polygon points=" 387.0,766.0 374.0,771.0 382.0,760.0 " style="fill:none; stroke:rgb(219,219,219); stroke-width:1.0px;"/>
<path d="M 407.0 746.0 L 373.0 771.0" style="fill:none; stroke:rgb(169,169,169); stroke-width:1.0px;"/>
<polygon points=" 386.0,766.0 373.0,771.0 381.0,760.0 " style="fill:none; stroke:rgb(169,169,169); stroke-width:1.0px;"/>
<path d="M 407.0 745.0 L 373.0 770.0" style="fill:none; stroke:rgb(169,169,169); stroke-width:1.0px;"/>
<polygon points=" 386.0,765.0 373.0,770.0 381.0,759.0 " style="fill:none; stroke:rgb(169,169,169); stroke-width:1.0px;"/>
<path d="M 406.0 745.0 L 372.0 770.0" style="fill:none; stroke:rgb(0,0,0); stroke-width:1.0px;"/>
<polygon points=" 385.0,765.0 372.0,770.0 380.0,759.0 " style="fill:rgb(0,0,0); stroke:rgb(0,0,0); stroke-width:1.0px;"/>
<path d="M 342.0 847.0 L 342.0 892.0" style="fill:none; stroke:rgb(219,219,219); stroke-width:1.0px;"/>
<polygon points=" 346.0,880.0 342.0,892.0 338.0,880.0 " style="fill:none; stroke:rgb(219,219,219); stroke-width:1.0px;"/>
<path d="M 342.0 846.0 L 342.0 891.0" style="fill:none; stroke:rgb(219,219,219); stroke-width:1.0px;"/>
<polygon points=" 346.0,879.0 342.0,891.0 338.0,879.0 " style="fill:none; stroke:rgb(219,219,219); stroke-width:1.0px;"/>
<path d="M 341.0 846.0 L 341.0 891.0" style="fill:none; stroke:rgb(169,169,169); stroke-width:1.0px;"/>
<polygon points=" 345.0,879.0 341.0,891.0 337.0,879.0 " style="fill:none; stroke:rgb(169,169,169); stroke-width:1.0px;"/>
<path d="M 341.0 845.0 L 341.0 890.0" style="fill:none; stroke:rgb(169,169,169); stroke-width:1.0px;"/>
<polygon points=" 345.0,878.0 341.0,890.0 337.0,878.0 " style="fill:none; stroke:rgb(169,169,169); stroke-width:1.0px;"/>
<path d="M 340.0 845.0 L 340.0 890.0" style="fill:none; stroke:rgb(0,0,0); stroke-width:1.0px;"/>
<polygon points=" 344.0,878.0 340.0,890.0 336.0,878.0 " style="fill:rgb(0,0,0); stroke:rgb(0,0,0); stroke-width:1.0px;"/>
<clipPath id="AdoSvgClip59">
<rect x="501.0px" y="896.0px" width="114.0px" height="61.0px" rx="8.0px" ry="8.0px" style="fill:none;"/>
</clipPath>
<g clip-path="url(#AdoSvgClip59)">
<linearGradient id="AdoSvgGradient11" x1="0%" y1="0%" x2="100%" y2="100%"><stop offset="5%" stop-color="rgb(255,255,255)"/><stop offset="95%" stop-color="rgb(143,194,255)"/></linearGradient>
<rect x="501.0px" y="896.0px" width="113.0px" height="60.0px" style="fill:url(#AdoSvgGradient11);"/>
</g>
<rect x="501.0px" y="896.0px" width="113.0px" height="60.0px" rx="8.0px" ry="8.0px" style="fill:none; stroke:rgb(0,68,170); stroke-width:2.0px;"/>
<text transform="translate(519.0,923.0), rotate(-0.0)" x="0px" y="0px" textLength="77.0px"
style="font-family:Arial; font-size:13.0px; fill:rgb(0,0,0); stroke:none; baseline-shift:-13.0px; ">
<![CDATA[zum Dekanat]]>
</text>
<text transform="translate(540.0,939.0), rotate(-0.0)" x="0px" y="0px" textLength="35.0px"
style="font-family:Arial; font-size:13.0px; fill:rgb(0,0,0); stroke:none; baseline-shift:-13.0px; ">
<![CDATA[gehen]]>
</text>
<path d="M 405.0 928.0 L 497.0 928.0" style="fill:none; stroke:rgb(219,219,219); stroke-width:1.0px;"/>
<polygon points=" 485.0,924.0 497.0,928.0 485.0,932.0 " style="fill:none; stroke:rgb(219,219,219); stroke-width:1.0px;"/>
<path d="M 405.0 927.0 L 497.0 927.0" style="fill:none; stroke:rgb(219,219,219); stroke-width:1.0px;"/>
<polygon points=" 485.0,923.0 497.0,927.0 485.0,931.0 " style="fill:none; stroke:rgb(219,219,219); stroke-width:1.0px;"/>
<path d="M 404.0 927.0 L 496.0 927.0" style="fill:none; stroke:rgb(169,169,169); stroke-width:1.0px;"/>
<polygon points=" 484.0,923.0 496.0,927.0 484.0,931.0 " style="fill:none; stroke:rgb(169,169,169); stroke-width:1.0px;"/>
<path d="M 404.0 926.0 L 496.0 926.0" style="fill:none; stroke:rgb(169,169,169); stroke-width:1.0px;"/>
<polygon points=" 484.0,922.0 496.0,926.0 484.0,930.0 " style="fill:none; stroke:rgb(169,169,169); stroke-width:1.0px;"/>
<path d="M 403.0 926.0 L 495.0 926.0" style="fill:none; stroke:rgb(0,0,0); stroke-width:1.0px;"/>
<polygon points=" 483.0,922.0 495.0,926.0 483.0,930.0 " style="fill:rgb(0,0,0); stroke:rgb(0,0,0); stroke-width:1.0px;"/>
<clipPath id="AdoSvgClip64">
<rect x="690.0px" y="896.0px" width="114.0px" height="61.0px" rx="8.0px" ry="8.0px" style="fill:none;"/>
</clipPath>
<g clip-path="url(#AdoSvgClip64)">
<linearGradient id="AdoSvgGradient12" x1="0%" y1="0%" x2="100%" y2="100%"><stop offset="5%" stop-color="rgb(255,255,255)"/><stop offset="95%" stop-color="rgb(143,194,255)"/></linearGradient>
<rect x="690.0px" y="896.0px" width="113.0px" height="60.0px" style="fill:url(#AdoSvgGradient12);"/>
</g>
<rect x="690.0px" y="896.0px" width="113.0px" height="60.0px" rx="8.0px" ry="8.0px" style="fill:none; stroke:rgb(0,68,170); stroke-width:2.0px;"/>
<text transform="translate(715.0,923.0), rotate(-0.0)" x="0px" y="0px" textLength="64.0px"
style="font-family:Arial; font-size:13.0px; fill:rgb(0,0,0); stroke:none; baseline-shift:-13.0px; ">
<![CDATA[Bewerbung]]>
</text>
<text transform="translate(717.0,939.0), rotate(-0.0)" x="0px" y="0px" textLength="59.0px"
style="font-family:Arial; font-size:13.0px; fill:rgb(0,0,0); stroke:none; baseline-shift:-13.0px; ">
<![CDATA[einreichen]]>
</text>
<path d="M 622.0 928.0 L 686.0 928.0" style="fill:none; stroke:rgb(219,219,219); stroke-width:1.0px;"/>
<polygon points=" 674.0,924.0 686.0,928.0 674.0,932.0 " style="fill:none; stroke:rgb(219,219,219); stroke-width:1.0px;"/>
<path d="M 622.0 927.0 L 686.0 927.0" style="fill:none; stroke:rgb(219,219,219); stroke-width:1.0px;"/>
<polygon points=" 674.0,923.0 686.0,927.0 674.0,931.0 " style="fill:none; stroke:rgb(219,219,219); stroke-width:1.0px;"/>
<path d="M 621.0 927.0 L 685.0 927.0" style="fill:none; stroke:rgb(169,169,169); stroke-width:1.0px;"/>
<polygon points=" 673.0,923.0 685.0,927.0 673.0,931.0 " style="fill:none; stroke:rgb(169,169,169); stroke-width:1.0px;"/>
<path d="M 621.0 926.0 L 685.0 926.0" style="fill:none; stroke:rgb(169,169,169); stroke-width:1.0px;"/>
<polygon points=" 673.0,922.0 685.0,926.0 673.0,930.0 " style="fill:none; stroke:rgb(169,169,169); stroke-width:1.0px;"/>
<path d="M 620.0 926.0 L 684.0 926.0" style="fill:none; stroke:rgb(0,0,0); stroke-width:1.0px;"/>
<polygon points=" 672.0,922.0 684.0,926.0 672.0,930.0 " style="fill:rgb(0,0,0); stroke:rgb(0,0,0); stroke-width:1.0px;"/>
<path d="M 315.0 242.0 L 329.0 285.0" style="fill:none; stroke:rgb(0,0,0); stroke-dasharray:2 3; stroke-width:1.0px;"/>
<clipPath id="AdoSvgClip69">
<ellipse cx="898.0px" cy="926.0px" rx="26.5px" ry="26.5px" style="fill:none;"/>
</clipPath>
<g clip-path="url(#AdoSvgClip69)">
<linearGradient id="AdoSvgGradient13" x1="0%" y1="0%" x2="100%" y2="100%"><stop offset="5%" stop-color="rgb(255,255,255)"/><stop offset="95%" stop-color="rgb(238,238,0)"/></linearGradient>
<rect x="864.0px" y="900.0px" width="105.0px" height="52.0px" style="fill:url(#AdoSvgGradient13);"/>
</g>
<ellipse cx="898.0px" cy="926.0px" rx="26.0px" ry="26.0px" style="fill:none; stroke:rgb(136,136,0); stroke-width:4.0px;"/>
<clipPath id="AdoSvgClip74">
<ellipse cx="548.0px" cy="161.0px" rx="26.5px" ry="26.5px" style="fill:none;"/>
</clipPath>
<g clip-path="url(#AdoSvgClip74)">
<linearGradient id="AdoSvgGradient14" x1="0%" y1="0%" x2="100%" y2="100%"><stop offset="5%" stop-color="rgb(255,255,255)"/><stop offset="95%" stop-color="rgb(238,238,0)"/></linearGradient>
<rect x="514.0px" y="134.0px" width="106.0px" height="53.0px" style="fill:url(#AdoSvgGradient14);"/>
</g>
<ellipse cx="548.0px" cy="161.0px" rx="26.0px" ry="26.0px" style="fill:none; stroke:rgb(136,136,0); stroke-width:4.0px;"/>
<path d="M 811.0 928.0 L 868.0 928.0" style="fill:none; stroke:rgb(219,219,219); stroke-width:1.0px;"/>
<polygon points=" 855.0,924.0 868.0,928.0 855.0,932.0 " style="fill:none; stroke:rgb(219,219,219); stroke-width:1.0px;"/>
<path d="M 811.0 927.0 L 868.0 927.0" style="fill:none; stroke:rgb(219,219,219); stroke-width:1.0px;"/>
<polygon points=" 855.0,923.0 868.0,927.0 855.0,931.0 " style="fill:none; stroke:rgb(219,219,219); stroke-width:1.0px;"/>
<path d="M 810.0 927.0 L 867.0 927.0" style="fill:none; stroke:rgb(169,169,169); stroke-width:1.0px;"/>
<polygon points=" 854.0,923.0 867.0,927.0 854.0,931.0 " style="fill:none; stroke:rgb(169,169,169); stroke-width:1.0px;"/>
<path d="M 810.0 926.0 L 867.0 926.0" style="fill:none; stroke:rgb(169,169,169); stroke-width:1.0px;"/>
<polygon points=" 854.0,922.0 867.0,926.0 854.0,930.0 " style="fill:none; stroke:rgb(169,169,169); stroke-width:1.0px;"/>
<path d="M 809.0 926.0 L 866.0 926.0" style="fill:none; stroke:rgb(0,0,0); stroke-width:1.0px;"/>
<polygon points=" 853.0,922.0 866.0,926.0 853.0,930.0 " style="fill:rgb(0,0,0); stroke:rgb(0,0,0); stroke-width:1.0px;"/>
<path d="M 550.0 291.0 L 550.0 195.0" style="fill:none; stroke:rgb(219,219,219); stroke-width:1.0px;"/>
<polygon points=" 546.0,207.0 550.0,195.0 554.0,207.0 " style="fill:none; stroke:rgb(219,219,219); stroke-width:1.0px;"/>
<path d="M 550.0 290.0 L 550.0 194.0" style="fill:none; stroke:rgb(219,219,219); stroke-width:1.0px;"/>
<polygon points=" 546.0,206.0 550.0,194.0 554.0,206.0 " style="fill:none; stroke:rgb(219,219,219); stroke-width:1.0px;"/>
<path d="M 549.0 290.0 L 549.0 194.0" style="fill:none; stroke:rgb(169,169,169); stroke-width:1.0px;"/>
<polygon points=" 545.0,206.0 549.0,194.0 553.0,206.0 " style="fill:none; stroke:rgb(169,169,169); stroke-width:1.0px;"/>
<path d="M 549.0 289.0 L 549.0 193.0" style="fill:none; stroke:rgb(169,169,169); stroke-width:1.0px;"/>
<polygon points=" 545.0,205.0 549.0,193.0 553.0,205.0 " style="fill:none; stroke:rgb(169,169,169); stroke-width:1.0px;"/>
<path d="M 548.0 289.0 L 548.0 193.0" style="fill:none; stroke:rgb(0,0,0); stroke-width:1.0px;"/>
<polygon points=" 544.0,205.0 548.0,193.0 552.0,205.0 " style="fill:rgb(0,0,0); stroke:rgb(0,0,0); stroke-width:1.0px;"/>
<text transform="translate(536.0,262.0), rotate(-0.0)" x="0px" y="0px" textLength="24.0px"
style="font-family:Arial; font-size:13.0px; fill:rgb(0,0,0); stroke:none; baseline-shift:-13.0px; ">
<![CDATA[nein]]>
</text>
<path d="M 735.0 242.0 L 752.0 285.0" style="fill:none; stroke:rgb(0,0,0); stroke-dasharray:2 3; stroke-width:1.0px;"/>
<path d="M 261.0 452.0 L 278.0 456.0" style="fill:none; stroke:rgb(0,0,0); stroke-dasharray:2 3; stroke-width:1.0px;"/>
<path d="M 765.0 523.0 L 765.0 508.0" style="fill:none; stroke:rgb(0,0,0); stroke-dasharray:2 3; stroke-width:1.0px;"/>
<path d="M 89.0 741.0 L 155.0 724.0" style="fill:none; stroke:rgb(0,0,0); stroke-dasharray:2 3; stroke-width:1.0px;"/>
<path d="M 505.0 765.0 L 486.0 765.0 C 484.0 765.0 482.0 763.0 482.0 762.0 L 482.0 745.0" style="fill:none; stroke:rgb(0,0,0); stroke-dasharray:2 3; stroke-width:1.0px;"/>
<path d="M 215.0 939.0 L 278.0 932.0" style="fill:none; stroke:rgb(0,0,0); stroke-dasharray:2 3; stroke-width:1.0px;"/>
<path d="M 524.0 968.0 L 529.0 962.0" style="fill:none; stroke:rgb(0,0,0); stroke-dasharray:2 3; stroke-width:1.0px;"/>
<path d="M 721.0 977.0 L 728.0 962.0" style="fill:none; stroke:rgb(0,0,0); stroke-dasharray:2 3; stroke-width:1.0px;"/>
</g>
</svg>
